Release Information:

American.Pie.UNRATED.1999.720p.BRRip.XviD.AC3-PsychoLogic

Source                           : American.Pie.UNRATED.1999.720p.BluRay.DTS.x264-CtrlHD
Subtitles                        : Arabic, Bulgarian, Danish, Dutch, English, Greek, Serbian, Slovenian, Swedish, Vietnamese
Language                         : English
Encoded By                       : PsychoLogic
Sample Included                  : Yes

Movie Information                : http://www.imdb.com/title/tt0163651/
Genre                            : Comedy | Romance
Director                         : Paul Weitz
Cast                             : Jason Biggs, Chris Klein and Thomas Ian Nicholas
Plot                             : Four teenage boys enter a pact to lose their virginity by prom night. 

General
Format                           : AVI
Format/Info                      : Audio Video Interleave
Format profile                   : OpenDML
File size                        : 2.24 GiB
Duration                         : 1h 35mn
Overall bit rate                 : 3 357 Kbps
Writing application              : VirtualDubMod 1.5.10.2 (build 2542/release)
Writing library                  : VirtualDubMod build 2542/release

Video
ID                               : 0
Format                           : MPEG-4 Visual
Format profile                   : Advanced Simple@L5
Format settings, BVOP            : 2
Format settings, QPel            : No
Format settings, GMC             : No warppoints
Format settings, Matrix          : Default (H.263)
Codec ID                         : XVID
Codec ID/Hint                    : XviD
Duration                         : 1h 35mn
Bit rate                         : 2 897 Kbps
Width                            : 1 280 pixels
Height                           : 720 pixels
Display aspect ratio             : 16:9
Frame rate                       : 24.000 fps
Color space                      : YUV
Chroma subsampling               : 4:2:0
Bit depth                        : 8 bits
Scan type                        : Progressive
Compression mode                 : Lossy
Bits/(Pixel*Frame)               : 0.131
Stream size                      : 1.93 GiB (86%)
Writing library                  : XviD 1.2.1 (UTC 2008-12-04)

Audio
ID                               : 1
Format                           : AC-3
Format/Info                      : Audio Coding 3
Mode extension                   : CM (complete main)
Codec ID                         : 2000
Duration                         : 1h 35mn
Bit rate mode                    : Constant
Bit rate                         : 448 Kbps
Channel(s)                       : 6 channels
Channel positions                : Front: L C R, Side: L R, LFE
Sampling rate                    : 48.0 KHz
Bit depth                        : 16 bits
Compression mode                 : Lossy
Stream size                      : 306 MiB (13%)
Alignment                        : Split accross interleaves
Interleave, duration             : 42 ms (1.00 video frame)
Interleave, preload duration     : 500 ms

